<svg width="1280" height="300" viewBox="0 0 1280 300" xmlns="http://www.w3.org/2000/svg" role="img" aria-label="QA Test Automation Frameworks — quality engineering, made observable">
  <defs>
    <linearGradient id="bg" x1="0" y1="0" x2="1" y2="1">
      <stop offset="0" stop-color="#0d1117"/>
      <stop offset="1" stop-color="#101826"/>
    </linearGradient>
    <linearGradient id="accent" x1="0" y1="0" x2="1" y2="0">
      <stop offset="0" stop-color="#3fb950"/>
      <stop offset="1" stop-color="#58a6ff"/>
    </linearGradient>
    <pattern id="grid" width="40" height="40" patternUnits="userSpaceOnUse">
      <path d="M40 0H0V40" fill="none" stroke="#21262d" stroke-width="1"/>
    </pattern>
  </defs>
  <rect width="1280" height="300" fill="url(#bg)"/>
  <rect width="1280" height="300" fill="url(#grid)" opacity="0.55"/>
  <rect x="0" y="296" width="1280" height="4" fill="url(#accent)"/>
  <g font-family="Segoe UI, Helvetica, Arial, sans-serif">
    <text x="640" y="96" text-anchor="middle" font-size="15" letter-spacing="6" fill="#3fb950" font-weight="600">QA TEST AUTOMATION FRAMEWORKS</text>
    <text x="640" y="152" text-anchor="middle" font-size="44" font-weight="700" fill="#e6edf3">Quality engineering, made observable.</text>
    <text x="640" y="190" text-anchor="middle" font-size="17" fill="#8b949e">Five review-ready reference frameworks — every claim linked to running evidence.</text>
  </g>
  <g font-family="Segoe UI, Helvetica, Arial, sans-serif" font-size="13" font-weight="600">
    <g transform="translate(275,222)">
      <rect width="128" height="34" rx="17" fill="#161b22" stroke="#30363d"/>
      <circle cx="20" cy="17" r="4" fill="#3fb950"/>
      <text x="74" y="22" text-anchor="middle" fill="#c9d1d9">BROWSER UI</text>
    </g>
    <g transform="translate(413,222)">
      <rect width="148" height="34" rx="17" fill="#161b22" stroke="#30363d"/>
      <circle cx="20" cy="17" r="4" fill="#3fb950"/>
      <text x="84" y="22" text-anchor="middle" fill="#c9d1d9">API CONTRACTS</text>
    </g>
    <g transform="translate(571,222)">
      <rect width="148" height="34" rx="17" fill="#161b22" stroke="#30363d"/>
      <circle cx="20" cy="17" r="4" fill="#3fb950"/>
      <text x="84" y="22" text-anchor="middle" fill="#c9d1d9">PERFORMANCE</text>
    </g>
    <g transform="translate(729,222)">
      <rect width="150" height="34" rx="17" fill="#161b22" stroke="#30363d"/>
      <circle cx="20" cy="17" r="4" fill="#3fb950"/>
      <text x="85" y="22" text-anchor="middle" fill="#c9d1d9">ACCESSIBILITY</text>
    </g>
    <g transform="translate(889,222)">
      <rect width="116" height="34" rx="17" fill="#161b22" stroke="#30363d"/>
      <circle cx="20" cy="17" r="4" fill="#58a6ff"/>
      <text x="66" y="22" text-anchor="middle" fill="#c9d1d9">LLM EVALS</text>
    </g>
  </g>
</svg>
